<?xml version="1.0" encoding="UTF-8" standalone="no"?>
<svg
   xmlns:dc="http://purl.org/dc/elements/1.1/"
   xmlns:cc="http://creativecommons.org/ns#"
   xmlns:rdf="http://www.w3.org/1999/02/22-rdf-syntax-ns#"
   xmlns:svg="http://www.w3.org/2000/svg"
   xmlns="http://www.w3.org/2000/svg"
   xmlns:xlink="http://www.w3.org/1999/xlink"
   xmlns:sodipodi="http://sodipodi.sourceforge.net/DTD/sodipodi-0.dtd"
   xmlns:inkscape="http://www.inkscape.org/namespaces/inkscape"
   version="1.0"
   width="340"
   height="160"
   id="svg2"
   sodipodi:version="0.32"
   inkscape:version="0.46"
   sodipodi:docname="buscaminas.svg"
   inkscape:output_extension="org.inkscape.output.svg.inkscape"
   inkscape:export-filename="/home/juanjo/Escritorio/jupiter/gadgets/Buscaminas/images/buscaminas.png"
   inkscape:export-xdpi="90"
   inkscape:export-ydpi="90">
  <metadata
     id="metadata22">
    <rdf:RDF>
      <cc:Work
         rdf:about="">
        <dc:format>image/svg+xml</dc:format>
        <dc:type
           rdf:resource="http://purl.org/dc/dcmitype/StillImage" />
      </cc:Work>
    </rdf:RDF>
  </metadata>
  <defs
     id="defs20">
    <inkscape:perspective
       sodipodi:type="inkscape:persp3d"
       inkscape:vp_x="0 : 80 : 1"
       inkscape:vp_y="0 : 1000 : 0"
       inkscape:vp_z="160 : 80 : 1"
       inkscape:persp3d-origin="80 : 53.333333 : 1"
       id="perspective24" />
    <radialGradient
       inkscape:collect="always"
       xlink:href="#paint"
       id="radialGradient2410"
       gradientUnits="userSpaceOnUse"
       cx="67"
       cy="67"
       r="100" />
    <radialGradient
       inkscape:collect="always"
       xlink:href="#paint"
       id="radialGradient2420"
       gradientUnits="userSpaceOnUse"
       cx="67"
       cy="67"
       r="100" />
    <inkscape:perspective
       id="perspective2429"
       inkscape:persp3d-origin="372.04724 : 350.78739 : 1"
       inkscape:vp_z="744.09448 : 526.18109 : 1"
       inkscape:vp_y="0 : 1000 : 0"
       inkscape:vp_x="0 : 526.18109 : 1"
       sodipodi:type="inkscape:persp3d" />
    <radialGradient
       inkscape:collect="always"
       xlink:href="#paint"
       id="radialGradient2435"
       gradientUnits="userSpaceOnUse"
       cx="67"
       cy="67"
       r="100" />
  </defs>
  <sodipodi:namedview
     inkscape:window-height="947"
     inkscape:window-width="1279"
     inkscape:pageshadow="2"
     inkscape:pageopacity="0.0"
     guidetolerance="10.0"
     gridtolerance="10.0"
     objecttolerance="10.0"
     borderopacity="1.0"
     bordercolor="#666666"
     pagecolor="#ffffff"
     id="base"
     showgrid="false"
     inkscape:zoom="1.0915961"
     inkscape:cx="80"
     inkscape:cy="80"
     inkscape:window-x="0"
     inkscape:window-y="27"
     inkscape:current-layer="svg2" />
  <radialGradient
     id="paint"
     cx="67"
     cy="67"
     r="100"
     gradientUnits="userSpaceOnUse">
    <stop
       offset="0"
       style="stop-color:#808080"
       id="stop5" />
    <stop
       offset="0.12"
       style="stop-color:#606060"
       id="stop7" />
    <stop
       offset="0.45"
       style="stop-color:#202020"
       id="stop9" />
    <stop
       offset="1"
       style="stop-color:#000000"
       id="stop11" />
  </radialGradient>
  <g
     id="g2397"
     transform="translate(12.825257,-0.9160898)">
    <path
       style="fill:url(#radialGradient2435);stroke:#000000;stroke-width:5"
       id="path13"
       d="M 155,84.839 L 155,75.161 L 133.967,75.161 C 132.964,63.832 128.481,53.506 121.584,45.26 L 136.454,30.389 L 129.612,23.546 L 114.74,38.417 C 106.494,31.52 96.167,27.037 84.839,26.033 L 84.839,5 L 75.161,5 L 75.161,26.033 C 63.831,27.036 53.504,31.519 45.258,38.416 L 30.388,23.546 L 23.545,30.389 L 38.415,45.259 C 31.519,53.506 27.036,63.833 26.032,75.162 L 5,75.162 L 5,84.84 L 26.033,84.84 C 27.036,96.171 31.518,106.498 38.415,114.743 L 23.546,129.613 L 30.389,136.455 L 45.258,121.587 C 53.504,128.483 63.831,132.965 75.162,133.968 L 75.162,155 L 84.84,155 L 84.84,133.967 C 96.169,132.964 106.496,128.482 114.742,121.585 L 129.613,136.454 L 136.455,129.612 L 121.586,114.741 C 128.482,106.496 132.965,96.169 133.968,84.839 L 155,84.839 L 155,84 L 155,84.839 z" />
    <circle
       style="fill:none;stroke:#000000;stroke-width:4"
       sodipodi:ry="6"
       sodipodi:rx="6"
       sodipodi:cy="80"
       sodipodi:cx="80"
       id="circle15"
       r="6"
       cy="80"
       cx="80" />
    <circle
       style="fill:none;stroke:#000000;stroke-width:5"
       sodipodi:ry="50"
       sodipodi:rx="50"
       sodipodi:cy="80"
       sodipodi:cx="80"
       id="circle17"
       r="50"
       cy="80"
       cx="80" />
  </g>
  <g
     id="g2402"
     transform="matrix(0.4399896,0,0,0.4399896,178.01032,110.88325)">
    <path
       style="fill:url(#radialGradient2410);stroke:#000000;stroke-width:5"
       id="path2404"
       d="M 155,84.839 L 155,75.161 L 133.967,75.161 C 132.964,63.832 128.481,53.506 121.584,45.26 L 136.454,30.389 L 129.612,23.546 L 114.74,38.417 C 106.494,31.52 96.167,27.037 84.839,26.033 L 84.839,5 L 75.161,5 L 75.161,26.033 C 63.831,27.036 53.504,31.519 45.258,38.416 L 30.388,23.546 L 23.545,30.389 L 38.415,45.259 C 31.519,53.506 27.036,63.833 26.032,75.162 L 5,75.162 L 5,84.84 L 26.033,84.84 C 27.036,96.171 31.518,106.498 38.415,114.743 L 23.546,129.613 L 30.389,136.455 L 45.258,121.587 C 53.504,128.483 63.831,132.965 75.162,133.968 L 75.162,155 L 84.84,155 L 84.84,133.967 C 96.169,132.964 106.496,128.482 114.742,121.585 L 129.613,136.454 L 136.455,129.612 L 121.586,114.741 C 128.482,106.496 132.965,96.169 133.968,84.839 L 155,84.839 L 155,84 L 155,84.839 z" />
    <circle
       style="fill:none;stroke:#000000;stroke-width:4"
       sodipodi:ry="6"
       sodipodi:rx="6"
       sodipodi:cy="80"
       sodipodi:cx="80"
       id="circle2406"
       r="6"
       cy="80"
       cx="80" />
    <circle
       style="fill:none;stroke:#000000;stroke-width:5"
       sodipodi:ry="50"
       sodipodi:rx="50"
       sodipodi:cy="80"
       sodipodi:cx="80"
       id="circle2408"
       r="50"
       cy="80"
       cx="80" />
  </g>
  <g
     id="g2412"
     transform="matrix(0.5820818,0,0,0.5820818,249.13243,76.621529)">
    <path
       style="fill:url(#radialGradient2420);stroke:#000000;stroke-width:5"
       id="path2414"
       d="M 155,84.839 L 155,75.161 L 133.967,75.161 C 132.964,63.832 128.481,53.506 121.584,45.26 L 136.454,30.389 L 129.612,23.546 L 114.74,38.417 C 106.494,31.52 96.167,27.037 84.839,26.033 L 84.839,5 L 75.161,5 L 75.161,26.033 C 63.831,27.036 53.504,31.519 45.258,38.416 L 30.388,23.546 L 23.545,30.389 L 38.415,45.259 C 31.519,53.506 27.036,63.833 26.032,75.162 L 5,75.162 L 5,84.84 L 26.033,84.84 C 27.036,96.171 31.518,106.498 38.415,114.743 L 23.546,129.613 L 30.389,136.455 L 45.258,121.587 C 53.504,128.483 63.831,132.965 75.162,133.968 L 75.162,155 L 84.84,155 L 84.84,133.967 C 96.169,132.964 106.496,128.482 114.742,121.585 L 129.613,136.454 L 136.455,129.612 L 121.586,114.741 C 128.482,106.496 132.965,96.169 133.968,84.839 L 155,84.839 L 155,84 L 155,84.839 z" />
    <circle
       style="fill:none;stroke:#000000;stroke-width:4"
       sodipodi:ry="6"
       sodipodi:rx="6"
       sodipodi:cy="80"
       sodipodi:cx="80"
       id="circle2416"
       r="6"
       cy="80"
       cx="80" />
    <circle
       style="fill:none;stroke:#000000;stroke-width:5"
       sodipodi:ry="50"
       sodipodi:rx="50"
       sodipodi:cy="80"
       sodipodi:cx="80"
       id="circle2418"
       r="50"
       cy="80"
       cx="80" />
  </g>
  <image
     y="5.3125229"
     x="166.47787"
     id="image2431"
     height="156.6037"
     width="156.6037"
     sodipodi:absref="/home/juanjo/Escritorio/jupiter/gadgets/Buscaminas/images/tile-bang.png"
     xlink:href="tile-bang.png" />
</svg>
